<svg width="5647" height="4179" viewBox="0 0 5647 4179" fill="none" xmlns="http://www.w3.org/2000/svg">
<path d="M4234.17 2654.58C4373.34 2745.04 4474.24 2811.14 4578.61 2880.72C4578.61 3298.22 4578.61 3719.19 4578.61 4178.44C3545.3 3489.57 2529.38 2811.14 1509.98 2132.71C1509.98 2003.98 1509.98 1875.25 1509.98 1722.17C2418.04 2327.54 3312.19 2922.47 4234.17 3538.28C4234.17 3235.59 4234.17 2964.22 4234.17 2654.58Z" fill="#3751FF"/>
<path d="M4676.03 2414.52C4676.03 2560.64 4676.03 2678.93 4676.03 2825.05C3583.57 2097.92 2505.02 1377.74 1409.08 647.119C1395.16 706.264 1388.2 744.534 1374.29 796.721C1262.95 723.659 1162.06 657.556 1057.68 587.973C1057.68 400.1 1057.68 219.185 1057.68 0C2275.4 814.117 3472.24 1610.84 4676.03 2414.52Z" fill="#3751FF"/>
<path d="M880.243 1005.47C869.806 1071.57 866.327 1113.32 859.369 1168.99C744.556 1088.97 640.181 1015.91 535.806 946.324C535.806 758.451 535.806 581.016 535.806 365.31C1743.08 1168.99 2929.48 1962.23 4126.32 2755.47C4126.32 2880.72 4126.32 3005.97 4126.32 3166.01C3040.82 2442.35 1969.23 1732.61 880.243 1005.47Z" fill="#3751FF"/>
<path d="M5305.76 330.518C5427.53 330.518 5531.9 330.518 5646.72 330.518C5646.72 1370.78 5646.72 2404.08 5646.72 3465.22C5497.11 3367.8 5361.42 3280.82 5225.74 3190.36C5225.74 3068.59 5225.74 2953.78 5225.74 2828.53C5250.09 2818.1 5277.92 2804.18 5309.24 2786.79C5305.76 1976.15 5305.76 1162.03 5305.76 330.518Z" fill="#3751FF"/>
<path d="M0 716.69C320.084 932.397 626.253 1134.19 935.899 1339.45C935.899 1464.7 935.899 1589.95 935.899 1746.51C734.107 1614.31 549.71 1492.54 337.481 1353.37C337.481 1962.22 337.481 2546.71 337.481 3145.12C215.709 3145.12 118.292 3145.12 0 3145.12C0 2341.44 0 1544.72 0 716.69Z" fill="#3751FF"/>
<path d="M5100.47 685.395C5100.47 1725.66 5100.47 2755.48 5100.47 3813.14C4957.82 3719.2 4829.09 3635.7 4700.36 3552.2C4700.36 3423.47 4700.36 3305.18 4700.36 3176.45C4717.76 3166.02 4738.63 3155.58 4769.95 3138.18C4769.95 2327.55 4769.95 1513.43 4769.95 685.395C4877.8 685.395 4978.7 685.395 5100.47 685.395Z" fill="#3751FF"/>
<path d="M1064.62 1245.52C1179.43 1322.06 1280.32 1395.13 1384.7 1464.71C1384.7 2257.95 1384.7 3044.23 1384.7 3840.96C1283.8 3840.96 1182.91 3840.96 1064.62 3840.96C1064.62 2988.57 1064.62 2125.74 1064.62 1245.52Z" fill="#3751FF"/>
<path d="M862.822 1819.58C862.822 2393.64 862.822 2939.87 862.822 3500.01C754.968 3500.01 654.074 3500.01 542.741 3500.01C542.741 2877.24 542.741 2257.96 542.741 1617.79C657.553 1687.38 761.926 1753.48 862.822 1819.58Z" fill="#3751FF"/>
<path d="M4578.61 1036.77C4578.61 1433.39 4578.61 1812.62 4578.61 2219.68C4460.32 2146.62 4355.94 2080.51 4251.56 2017.89C4251.56 1690.85 4251.56 1367.29 4251.56 1040.25C4359.42 1036.77 4460.32 1036.77 4578.61 1036.77Z" fill="#3751FF"/>
</svg>
